<svg width="75" height="83" viewBox="0 0 75 83" fill="none" xmlns="http://www.w3.org/2000/svg">
<path d="M33.3659 1.03654C35.8095 -0.345514 38.7988 -0.345515 41.2425 1.03654L70.5467 17.61C73.0566 19.0296 74.6084 21.69 74.6084 24.5735V57.437C74.6084 60.3205 73.0566 62.9809 70.5467 64.4005L41.2425 80.9739C38.7988 82.356 35.8095 82.356 33.3659 80.9739L4.06169 64.4005C1.55178 62.9809 0 60.3205 0 57.437V24.5735C0 21.69 1.55178 19.0296 4.06169 17.61L33.3659 1.03654Z" fill="url(#paint0_linear_1917_522)" fill-opacity="0.8"/>
<path d="M45.2798 65.1822H35.6236V38.7447C35.6236 38.0155 35.634 37.1197 35.6548 36.0572C35.6756 34.9739 35.7069 33.8697 35.7486 32.7447C35.7902 31.5989 35.8319 30.5676 35.8736 29.651C35.6444 29.9218 35.1756 30.3905 34.4673 31.0572C33.7798 31.703 33.134 32.2864 32.5298 32.8072L27.2798 37.026L22.6236 31.2135L37.3423 19.4947H45.2798V65.1822Z" fill="white"/>
<defs>
<linearGradient id="paint0_linear_1917_522" x1="59.2236" y1="69.1716" x2="13.8199" y2="15.5845" gradientUnits="userSpaceOnUse">
<stop stop-color="#00B7EC"/>
<stop offset="1" stop-color="#00B7EC" stop-opacity="0.33"/>
</linearGradient>
</defs>
</svg>
