<svg width="31" height="31" viewBox="0 0 31 31" fill="none" xmlns="http://www.w3.org/2000/svg">
<path d="M17.9246 30.13C21.0347 29.5931 23.7544 28.1656 25.9985 25.8961C28.1206 23.7487 29.4866 21.1498 30.072 18.1727C31.5965 10.3273 26.7059 2.68928 18.9369 0.785877C11.4729 -1.04432 3.85027 3.03092 1.2281 10.2541C0.764645 11.5352 0.484133 12.853 0.39876 14.1829C0.39876 14.2683 0.374368 14.3415 0.362172 14.4147C0.362172 14.4391 0.349976 14.4513 0.349976 14.4757V16.2205C0.374368 16.4035 0.39876 16.5744 0.410956 16.7574C0.459741 17.1478 0.508526 17.5383 0.569506 17.9287C1.16712 21.3695 2.8136 24.2978 5.46017 26.6282C7.66767 28.5804 10.302 29.7884 13.2657 30.2032C13.534 30.2398 13.8145 30.2764 14.0828 30.3008C14.2048 30.313 14.3268 30.3252 14.4487 30.3496H16.205C16.3879 30.3252 16.5587 30.3008 16.7416 30.2764C17.1441 30.2398 17.5466 30.191 17.9246 30.13ZM5.42358 24.1636L5.30162 24.5784L5.00891 24.2734C3.1185 22.2846 1.91108 19.3929 1.67936 16.3425C1.49641 13.8779 1.88669 10.1809 4.77718 6.6547C7.16763 3.73859 10.6923 1.9328 14.4853 1.68877C18.2539 1.44475 21.9616 2.77469 24.6691 5.32476C30.7184 11.035 29.9135 19.6125 25.6936 24.2856L25.4009 24.615L25.2789 24.188C24.291 20.7472 22.1933 18.4167 18.8759 17.0624L18.4735 16.9038L18.8272 16.6476C20.6566 15.2932 21.5591 13.5118 21.5103 11.3644C21.4737 9.60741 20.7663 8.09445 19.3882 6.86212C16.9246 4.66589 13.0462 4.90991 10.7655 7.41118C9.63125 8.65571 9.05803 10.4371 9.24097 12.1819C9.42392 13.9633 10.363 15.5494 11.8875 16.6354L12.2412 16.8916L11.8266 17.0624C8.5336 18.4045 6.37488 20.796 5.42358 24.1636ZM15.3512 16.4035C12.6803 16.4035 10.485 14.2195 10.4728 11.5474C10.4606 10.2541 10.9606 9.03395 11.8875 8.10665C12.8144 7.17935 14.0463 6.6547 15.3391 6.6547C16.644 6.6547 17.8759 7.16715 18.8028 8.10665C19.7297 9.03395 20.2297 10.2541 20.2175 11.5474C20.1931 14.2195 18.01 16.4035 15.3512 16.4035ZM15.9245 29.0319C15.8025 29.0441 15.7049 29.0441 15.6074 29.0563H15.5952H15.583C12.1437 29.0197 9.24097 28.007 6.72857 25.9815C6.6066 25.8839 6.48464 25.6643 6.50904 25.4691C7.00908 21.6379 10.0215 18.5266 13.8389 17.8799C18.5344 17.0868 22.9129 19.9907 24.0349 24.6394V24.6638C24.2788 25.6765 24.2422 25.7863 23.4251 26.3964C21.5347 27.7873 19.4004 28.6414 17.0831 28.9343C16.6684 28.9831 16.2416 29.0197 15.9245 29.0319Z" fill="#666666" stroke="#666666" stroke-width="0.7"/>
</svg>
