<svg width="31" height="47" viewBox="0 0 31 47" fill="none" xmlns="http://www.w3.org/2000/svg">
<path d="M16.0625 16.5C18.8542 16.5 21.3333 17.0312 23.5 18.0938C25.6875 19.1562 27.4062 20.7188 28.6562 22.7812C29.9062 24.8438 30.5312 27.3854 30.5312 30.4062C30.5312 33.6979 29.8438 36.5417 28.4688 38.9375C27.1146 41.3125 25.0833 43.1354 22.375 44.4062C19.6875 45.6771 16.3333 46.3125 12.3125 46.3125C9.91667 46.3125 7.65625 46.1042 5.53125 45.6875C3.42708 45.2917 1.58333 44.6771 0 43.8438V35.5C1.58333 36.3333 3.47917 37.0417 5.6875 37.625C7.91667 38.1875 10.0104 38.4688 11.9688 38.4688C13.8854 38.4688 15.5 38.2188 16.8125 37.7188C18.125 37.1979 19.1146 36.4062 19.7812 35.3438C20.4688 34.2604 20.8125 32.8854 20.8125 31.2188C20.8125 28.9896 20.0625 27.2812 18.5625 26.0938C17.0625 24.9062 14.7604 24.3125 11.6562 24.3125C10.4688 24.3125 9.22917 24.4271 7.9375 24.6562C6.66667 24.8854 5.60417 25.1146 4.75 25.3438L0.90625 23.2812L2.625 0H27.4062V8.1875H11.0938L10.25 17.1562C10.9583 17.0104 11.7292 16.8646 12.5625 16.7188C13.3958 16.5729 14.5625 16.5 16.0625 16.5Z" fill="white"/>
</svg>
